<?xml version="1.0" encoding="UTF-8" standalone="no"?>
<!DOCTYPE svg PUBLIC "-//W3C//DTD SVG 1.1//EN" "http://www.w3.org/Graphics/SVG/1.1/DTD/svg11.dtd">
<svg version="1.1" xmlns="http://www.w3.org/2000/svg" xmlns:xlink="http://www.w3.org/1999/xlink" preserveAspectRatio="xMidYMid meet" viewBox="0 0 640 640" width="640" height="640"><defs><path d="M600 80C600 95 600 103.33 600 105C600 113.25 593.25 120 585 120C580 120 540 120 535 120C526.75 120 520 113.25 520 105C520 103.33 520 95 520 80L120 80C120 95 120 103.33 120 105C120 113.25 113.25 120 105 120C100 120 60 120 55 120C46.75 120 40 113.25 40 105C40 103.33 40 95 40 80C34 80 30.67 80 30 80C13.38 80 0 93.38 0 110C0 152 0 488 0 530C0 546.63 13.38 560 30 560C30.67 560 34 560 40 560C40 545 40 536.67 40 535C40 526.75 46.75 520 55 520C60 520 100 520 105 520C113.25 520 120 526.75 120 535C120 536.67 120 545 120 560L520 560C520 545 520 536.67 520 535C520 526.75 526.75 520 535 520C540 520 580 520 585 520C593.25 520 600 526.75 600 535C600 536.67 600 545 600 560C606 560 609.33 560 610 560C626.63 560 640 546.63 640 530C640 488 640 152 640 110C640 93.38 626.63 80 610 80C608.67 80 605.33 80 600 80ZM105 480C100 480 60 480 55 480C46.75 480 40 473.25 40 465C40 460 40 420 40 415C40 406.75 46.75 400 55 400C60 400 100 400 105 400C113.25 400 120 406.75 120 415C120 418.33 120 435 120 465C115.5 475 110.5 480 105 480ZM105 360C100 360 60 360 55 360C46.75 360 40 353.25 40 345C40 340 40 300 40 295C40 286.75 46.75 280 55 280C60 280 100 280 105 280C113.25 280 120 286.75 120 295C120 298.33 120 315 120 345C115.5 355 110.5 360 105 360ZM105 240C100 240 60 240 55 240C46.75 240 40 233.25 40 225C40 220 40 180 40 175C40 166.75 46.75 160 55 160C60 160 100 160 105 160C113.25 160 120 166.75 120 175C120 178.33 120 195 120 225C115.5 235 110.5 240 105 240ZM445 500C420 500 220 500 195 500C186.75 500 180 493.25 180 485C180 473 180 377 180 365C180 356.75 186.75 350 195 350C220 350 420 350 445 350C453.25 350 460 356.75 460 365C460 373 460 413 460 485C455.5 495 450.5 500 445 500ZM445 290C420 290 220 290 195 290C186.75 290 180 283.25 180 275C180 263 180 167 180 155C180 146.75 186.75 140 195 140C220 140 420 140 445 140C453.25 140 460 146.75 460 155C460 163 460 203 460 275C455.5 285 450.5 290 445 290ZM585 480C580 480 540 480 535 480C526.75 480 520 473.25 520 465C520 460 520 420 520 415C520 406.75 526.75 400 535 400C540 400 580 400 585 400C593.25 400 600 406.75 600 415C600 418.33 600 435 600 465C595.5 475 590.5 480 585 480ZM585 360C580 360 540 360 535 360C526.75 360 520 353.25 520 345C520 340 520 300 520 295C520 286.75 526.75 280 535 280C540 280 580 280 585 280C593.25 280 600 286.75 600 295C600 298.33 600 315 600 345C595.5 355 590.5 360 585 360ZM585 240C580 240 540 240 535 240C526.75 240 520 233.25 520 225C520 220 520 180 520 175C520 166.75 526.75 160 535 160C540 160 580 160 585 160C593.25 160 600 166.75 600 175C600 178.33 600 195 600 225C595.5 235 590.5 240 585 240Z" id="eDQDJBdsP"></path></defs><g><g><g><use xlink:href="#eDQDJBdsP" opacity="1" fill="#829aa1" fill-opacity="1"></use><g><use xlink:href="#eDQDJBdsP" opacity="1" fill-opacity="0" stroke="#000000" stroke-width="1" stroke-opacity="0"></use></g></g></g></g></svg>